<svg width="164" height="156" viewBox="0 0 164 156" fill="none" xmlns="http://www.w3.org/2000/svg">
<path d="M130.833 124.5C135.165 124.5 139.32 126.133 142.383 129.04C145.446 131.947 147.167 135.889 147.167 140C147.167 144.111 145.446 148.053 142.383 150.96C139.32 153.867 135.165 155.5 130.833 155.5C126.502 155.5 122.347 153.867 119.284 150.96C116.221 148.053 114.5 144.111 114.5 140C114.5 131.397 121.768 124.5 130.833 124.5ZM0.166748 0.5H26.8717L34.5484 16H155.333C157.499 16 159.577 16.8165 161.108 18.2699C162.64 19.7233 163.5 21.6946 163.5 23.75C163.5 25.0675 163.092 26.385 162.52 27.625L133.283 77.7675C130.507 82.495 125.117 85.75 118.992 85.75H58.1501L50.8001 98.3825L50.5551 99.3125C50.5551 99.8264 50.7702 100.319 51.1531 100.683C51.536 101.046 52.0553 101.25 52.5967 101.25H147.167V116.75H49.1667C44.8349 116.75 40.6804 115.117 37.6173 112.21C34.5542 109.303 32.8334 105.361 32.8334 101.25C32.8334 98.5375 33.5684 95.98 34.7934 93.81L45.9001 74.8225L16.5001 16H0.166748V0.5ZM49.1667 124.5C53.4986 124.5 57.6531 126.133 60.7162 129.04C63.7792 131.947 65.5001 135.889 65.5001 140C65.5001 144.111 63.7792 148.053 60.7162 150.96C57.6531 153.867 53.4986 155.5 49.1667 155.5C44.8349 155.5 40.6804 153.867 37.6173 150.96C34.5542 148.053 32.8334 144.111 32.8334 140C32.8334 131.397 40.1017 124.5 49.1667 124.5ZM122.667 70.25L145.37 31.5H42.1434L61.4167 70.25H122.667Z" fill="#F8F8F8"/>
</svg>
