<svg width="190" height="200" viewBox="0 0 190 200" fill="none" xmlns="http://www.w3.org/2000/svg">
<path d="M151.792 160C141.293 160 132.875 168.9 132.875 180C132.875 185.304 134.868 190.391 138.415 194.142C141.963 197.893 146.775 200 151.792 200C156.809 200 161.62 197.893 165.168 194.142C168.715 190.391 170.708 185.304 170.708 180C170.708 174.696 168.715 169.609 165.168 165.858C161.62 162.107 156.809 160 151.792 160ZM0.458252 0V20H19.3749L53.4249 95.9L40.5616 120.4C39.1428 123.2 38.2916 126.5 38.2916 130C38.2916 135.304 40.2846 140.391 43.8321 144.142C47.3797 147.893 52.1912 150 57.2083 150H170.708V130H61.1808C60.5536 130 59.9522 129.737 59.5087 129.268C59.0653 128.799 58.8162 128.163 58.8162 127.5C58.8162 127 58.9107 126.6 59.0999 126.3L67.6124 110H138.077C145.171 110 151.413 105.8 154.629 99.7L188.49 35C189.152 33.4 189.625 31.7 189.625 30C189.625 27.3478 188.628 24.8043 186.855 22.9289C185.081 21.0536 182.675 20 180.167 20H40.2778L31.387 0M57.2083 160C46.7095 160 38.2916 168.9 38.2916 180C38.2916 185.304 40.2846 190.391 43.8321 194.142C47.3797 197.893 52.1912 200 57.2083 200C62.2253 200 67.0368 197.893 70.5843 194.142C74.1319 190.391 76.1249 185.304 76.1249 180C76.1249 174.696 74.1319 169.609 70.5843 165.858C67.0368 162.107 62.2253 160 57.2083 160Z" fill="black"/>
</svg>
