<svg width="38" height="26" viewBox="0 0 38 26" fill="none" xmlns="http://www.w3.org/2000/svg">
<g filter="url(#filter0_d_16_17)">
<path d="M10.6667 3.99999V0.666656H34V3.99999H10.6667ZM10.6667 10.6667V7.33332H34V10.6667H10.6667ZM10.6667 17.3333V14H34V17.3333H10.6667ZM5.66667 3.99999C5.19445 3.99999 4.79889 3.83999 4.48001 3.51999C4.16112 3.19999 4.00112 2.80443 4.00001 2.33332C3.99889 1.86221 4.15889 1.46666 4.48001 1.14666C4.80112 0.826657 5.19667 0.666656 5.66667 0.666656C6.13667 0.666656 6.53278 0.826657 6.85501 1.14666C7.17723 1.46666 7.33667 1.86221 7.33334 2.33332C7.33001 2.80443 7.17001 3.20055 6.85334 3.52166C6.53667 3.84277 6.14112 4.00221 5.66667 3.99999ZM5.66667 10.6667C5.19445 10.6667 4.79889 10.5067 4.48001 10.1867C4.16112 9.86666 4.00112 9.4711 4.00001 8.99999C3.99889 8.52888 4.15889 8.13332 4.48001 7.81332C4.80112 7.49332 5.19667 7.33332 5.66667 7.33332C6.13667 7.33332 6.53278 7.49332 6.85501 7.81332C7.17723 8.13332 7.33667 8.52888 7.33334 8.99999C7.33001 9.4711 7.17001 9.86721 6.85334 10.1883C6.53667 10.5094 6.14112 10.6689 5.66667 10.6667ZM5.66667 17.3333C5.19445 17.3333 4.79889 17.1733 4.48001 16.8533C4.16112 16.5333 4.00112 16.1378 4.00001 15.6667C3.99889 15.1955 4.15889 14.8 4.48001 14.48C4.80112 14.16 5.19667 14 5.66667 14C6.13667 14 6.53278 14.16 6.85501 14.48C7.17723 14.8 7.33667 15.1955 7.33334 15.6667C7.33001 16.1378 7.17001 16.5339 6.85334 16.855C6.53667 17.1761 6.14112 17.3355 5.66667 17.3333Z" fill="black"/>
</g>
<defs>
<filter id="filter0_d_16_17" x="0" y="0.666656" width="38" height="24.6667" filterUnits="userSpaceOnUse" color-interpolation-filters="sRGB">
<feFlood flood-opacity="0" result="BackgroundImageFix"/>
<feColorMatrix in="SourceAlpha" type="matrix" values="0 0 0 0 0 0 0 0 0 0 0 0 0 0 0 0 0 0 127 0" result="hardAlpha"/>
<feOffset dy="4"/>
<feGaussianBlur stdDeviation="2"/>
<feComposite in2="hardAlpha" operator="out"/>
<feColorMatrix type="matrix" values="0 0 0 0 0 0 0 0 0 0 0 0 0 0 0 0 0 0 0.25 0"/>
<feBlend mode="normal" in2="BackgroundImageFix" result="effect1_dropShadow_16_17"/>
<feBlend mode="normal" in="SourceGraphic" in2="effect1_dropShadow_16_17" result="shape"/>
</filter>
</defs>
</svg>
