<svg width="30" height="18" viewBox="0 0 30 18" fill="none" xmlns="http://www.w3.org/2000/svg">
<path d="M6.66667 3.99999V0.666656H30V3.99999H6.66667ZM6.66667 10.6667V7.33332H30V10.6667H6.66667ZM6.66667 17.3333V14H30V17.3333H6.66667ZM1.66667 3.99999C1.19445 3.99999 0.798895 3.83999 0.480006 3.51999C0.161117 3.19999 0.00111686 2.80443 5.74712e-06 2.33332C-0.00110536 1.86221 0.158895 1.46666 0.480006 1.14666C0.801117 0.826657 1.19667 0.666656 1.66667 0.666656C2.13667 0.666656 2.53278 0.826657 2.85501 1.14666C3.17723 1.46666 3.33667 1.86221 3.33334 2.33332C3.33001 2.80443 3.17001 3.20055 2.85334 3.52166C2.53667 3.84277 2.14112 4.00221 1.66667 3.99999ZM1.66667 10.6667C1.19445 10.6667 0.798895 10.5067 0.480006 10.1867C0.161117 9.86666 0.00111686 9.4711 5.74712e-06 8.99999C-0.00110536 8.52888 0.158895 8.13332 0.480006 7.81332C0.801117 7.49332 1.19667 7.33332 1.66667 7.33332C2.13667 7.33332 2.53278 7.49332 2.85501 7.81332C3.17723 8.13332 3.33667 8.52888 3.33334 8.99999C3.33001 9.4711 3.17001 9.86721 2.85334 10.1883C2.53667 10.5094 2.14112 10.6689 1.66667 10.6667ZM1.66667 17.3333C1.19445 17.3333 0.798895 17.1733 0.480006 16.8533C0.161117 16.5333 0.00111686 16.1378 5.74712e-06 15.6667C-0.00110536 15.1955 0.158895 14.8 0.480006 14.48C0.801117 14.16 1.19667 14 1.66667 14C2.13667 14 2.53278 14.16 2.85501 14.48C3.17723 14.8 3.33667 15.1955 3.33334 15.6667C3.33001 16.1378 3.17001 16.5339 2.85334 16.855C2.53667 17.1761 2.14112 17.3355 1.66667 17.3333Z" fill="#F24E1E"/>
</svg>
